<svg width="20" height="18" viewBox="0 0 20 18" fill="none" xmlns="http://www.w3.org/2000/svg">
<path d="M17.3667 2.84167C16.9411 2.41584 16.4357 2.07804 15.8795 1.84757C15.3233 1.6171 14.7271 1.49848 14.1251 1.49848C13.523 1.49848 12.9268 1.6171 12.3706 1.84757C11.8144 2.07804 11.309 2.41584 10.8834 2.84167L10.0001 3.725L9.11673 2.84167C8.25698 1.98193 7.09092 1.49893 5.87506 1.49893C4.6592 1.49893 3.49314 1.98193 2.63339 2.84167C1.77365 3.70141 1.29065 4.86748 1.29065 6.08334C1.29065 7.2992 1.77365 8.46526 2.63339 9.325L3.51672 10.2083L10.0001 16.6917L16.4834 10.2083L17.3667 9.325C17.7926 8.89937 18.1304 8.39402 18.3608 7.8378C18.5913 7.28158 18.7099 6.68541 18.7099 6.08334C18.7099 5.48126 18.5913 4.88509 18.3608 4.32887C18.1304 3.77266 17.7926 3.2673 17.3667 2.84167V2.84167Z" stroke="#F46D5C" stroke-width="2" stroke-linecap="round" stroke-linejoin="round"/>
</svg>
