<svg width="124" height="124" viewBox="0 0 124 124" fill="none" xmlns="http://www.w3.org/2000/svg">
<path d="M41.3558 0.138469C39.6314 0.642776 38.4302 1.3844 37.1514 2.70944C34.9717 4.96399 33.6252 8.10849 33.1699 12.0144C32.8405 14.882 33.1892 17.3739 34.2452 19.6482C34.7586 20.7656 35.1267 21.3292 35.8824 22.1302C37.2483 23.5838 38.7499 24.3254 40.3677 24.3254C41.2686 24.3254 41.908 24.1474 42.9155 23.6332C46.432 21.8335 48.912 17.7991 49.5611 12.8549C49.8227 10.8377 49.6483 7.88106 49.1542 6.16048C48.3599 3.36208 46.432 1.11742 44.107 0.286795C43.3902 0.0296978 41.9758 -0.0494098 41.3558 0.138469Z" fill="#A88E74"/>
<path d="M18.2124 0.47464C15.8583 1.26571 13.9112 3.62903 13.1749 6.58564C13.0683 6.99107 12.9327 7.98979 12.8649 8.80064C12.4774 13.6657 14.1146 18.6099 17.1371 21.6555C18.3383 22.8718 20.0433 23.9199 21.4093 24.2858C23.3662 24.8099 25.943 23.6529 27.3574 21.6159C28.7136 19.6679 29.353 17.3936 29.353 14.4864C29.353 12.7659 29.1786 11.4013 28.7718 9.80925C27.5802 5.15183 24.9743 1.87879 21.4093 0.5933C20.5374 0.276872 18.9777 0.217543 18.2124 0.47464Z" fill="#A88E74"/>
<path d="M55.6063 19.3416C53.3588 19.8261 51.0629 21.428 49.5032 23.5738C47.9532 25.7295 47.0135 28.1521 46.5969 31.0692C46.3644 32.7205 46.3547 33.3732 46.5485 34.6092C46.8585 36.5572 47.6335 38.2284 48.7766 39.4051C49.571 40.2258 50.3266 40.7004 51.276 40.9477C53.4266 41.5311 56.2263 40.562 58.4447 38.4657C59.8785 37.1209 61.4091 34.6092 62.0969 32.4634C62.7363 30.4957 63.0463 27.9741 62.8719 26.2437C62.7169 24.7011 62.1163 22.9805 61.3316 21.8137C61.0604 21.4083 60.2369 20.5579 59.7719 20.192C58.6675 19.3218 57.1175 19.0054 55.6063 19.3416Z" fill="#A88E74"/>
<path d="M5.4734 20.5381C3.00309 20.9238 1.1334 22.5652 0.484342 24.9187C-3.31947e-05 26.6986 -0.116283 28.5873 0.154967 30.4463C0.629654 33.7292 2.03434 36.6858 4.16559 38.8711C5.6284 40.3643 6.97497 41.2246 8.81559 41.8475C10.9953 42.5694 12.9231 42.0453 14.4925 40.3148C15.8293 38.8415 16.3428 37.3286 16.4397 34.5598C16.4784 33.3238 16.459 32.8689 16.2846 31.8504C15.7518 28.6565 14.4053 25.9767 12.2159 23.7222C10.7434 22.2093 9.0384 21.0721 7.7209 20.726C7.13965 20.5678 5.90934 20.4689 5.4734 20.5381Z" fill="#A88E74"/>
<path d="M30.535 33.2249C25.9722 33.8182 21.5256 36.5078 18.7259 40.3939C16.3525 43.6768 14.5215 47.0883 13.33 50.4701C12.5259 52.7346 11.8187 55.7406 11.8187 56.9173C11.8187 59.5872 13.4947 62.2373 15.7906 63.1964C16.6722 63.5623 17.7668 63.7205 18.7937 63.6315C20.644 63.4832 21.9034 63.1371 25.2359 61.8516C28.8009 60.4771 29.7212 60.22 31.8525 59.9629C34.7684 59.607 36.7156 60.0223 40.9781 61.8813C44.7465 63.5227 45.599 63.7798 47.1781 63.7798C50.1328 63.7798 52.4965 62.1977 53.2134 59.7454C53.4653 58.8555 53.4846 56.6405 53.2424 55.622C52.6321 53.051 51.5181 50.4701 49.8131 47.6618C45.9865 41.363 43.0318 37.8724 39.4765 35.4497C37.8975 34.3719 36.3959 33.7193 34.6715 33.3732C33.7803 33.1853 31.4746 33.1062 30.535 33.2249Z" fill="#A88E74"/>
<path d="M102.348 60.3684C98.4831 61.4364 95.5381 65.2335 94.5015 70.4842C93.6006 75.0427 94.3078 79.0179 96.5165 81.8657C98.0472 83.8335 100.527 84.9014 102.474 84.4367C103.201 84.2587 104.625 83.5171 105.458 82.8842C107.715 81.1537 109.411 78.4246 110.205 75.2504C110.641 73.51 110.757 72.3136 110.699 70.3062C110.622 67.5869 110.341 66.2322 109.498 64.5512C108.665 62.89 107.541 61.6638 106.185 60.9321C104.925 60.2597 103.501 60.052 102.348 60.3684Z" fill="#A88E74"/>
<path d="M79.7668 60.5662C77.5677 60.9716 75.4559 63.0976 74.5162 65.8564C73.7315 68.1505 73.6831 71.8784 74.3902 74.7263C75.5818 79.4727 78.2749 82.9039 81.9077 84.2982C82.6924 84.6047 83.7968 84.6641 84.6687 84.4564C87.3909 83.7939 89.4252 81.2427 90.2002 77.495C90.4521 76.3084 90.5005 73.6979 90.2971 72.2839C89.5124 66.7266 86.7612 62.524 82.8862 60.9518C82.2565 60.6947 80.8421 60.3783 80.5224 60.4277C80.4837 60.4277 80.1446 60.4969 79.7668 60.5662Z" fill="#A88E74"/>
<path d="M117.364 79.4134C113.014 80.0067 109.304 83.9917 107.977 89.4896C107.609 91.0421 107.425 92.9011 107.531 94.068C107.735 96.2632 108.49 98.142 109.711 99.4571C111.174 101.039 112.685 101.573 114.7 101.217C118.817 100.486 122.44 96.3225 123.603 91.0026C123.874 89.7665 124.039 87.8482 123.961 86.7605C123.767 83.9126 122.334 81.2427 120.367 80.0858C119.466 79.5518 118.275 79.2849 117.364 79.4134Z" fill="#A88E74"/>
<path d="M65.9716 80.8472C64.3538 81.1932 62.8135 82.3798 62.0676 83.8334C61.0891 85.732 60.8082 88.8468 61.3701 91.6254C61.7769 93.6328 62.8426 96.0554 63.9954 97.6277C66.3882 100.871 70.1954 102.859 72.8498 102.236C73.7313 102.028 74.5063 101.543 75.3685 100.663C76.9088 99.101 77.4998 97.3409 77.5192 94.3349C77.5288 91.1607 76.5407 88.125 74.6129 85.4353C73.896 84.4366 72.3848 82.9336 71.4548 82.3007C69.3913 80.8768 67.7735 80.4516 65.9716 80.8472Z" fill="#A88E74"/>
<path d="M91.4014 93.4549C88.2336 93.89 85.1917 95.3139 82.4889 97.6179C81.3167 98.6166 80.4351 99.645 79.1758 101.484C76.2308 105.766 74.487 109.583 73.3633 114.211C72.9661 115.812 72.908 116.178 72.908 117.128C72.908 117.998 72.9467 118.364 73.1308 118.957C73.838 121.281 75.3298 122.912 77.3351 123.555C77.9648 123.763 78.2845 123.802 79.2823 123.802C81.3264 123.802 82.5083 123.506 86.4995 121.973C90.1323 120.589 90.8976 120.371 93.0483 120.134C95.9158 119.817 97.8726 120.252 102.368 122.21C106.117 123.832 106.969 124.069 108.694 123.96C110.495 123.852 111.803 123.298 112.917 122.171C114.148 120.935 114.574 119.619 114.477 117.424C114.332 114.27 112.772 110.671 109.139 105.113C106.214 100.624 103.569 97.7069 100.595 95.6896C98.9867 94.6019 97.582 93.9789 95.877 93.5933C95.0342 93.4054 92.3605 93.3164 91.4014 93.4549Z" fill="#A88E74"/>
</svg>
